<svg width="28" height="28" viewBox="0 0 28 28" fill="none" xmlns="http://www.w3.org/2000/svg">
<g clip-path="url(#clip0_484_4173)">
<path d="M20.4206 0H7.57934C3.40002 0 0 3.40002 0 7.57934V20.4208C0 24.5999 3.40002 27.9999 7.57934 27.9999H20.4208C24.5999 27.9999 27.9999 24.5999 27.9999 20.4208V7.57934C27.9999 3.40002 24.5999 0 20.4206 0ZM26.3584 20.4208C26.3584 23.6948 23.6948 26.3584 20.4206 26.3584H7.57934C4.30516 26.3584 1.6415 23.6948 1.6415 20.4208V7.57934C1.6415 4.30516 4.30516 1.6415 7.57934 1.6415H20.4208C23.6948 1.6415 26.3584 4.30516 26.3584 7.57934V20.4208Z" fill="white"/>
<path d="M14 6.34401C9.77842 6.34401 6.34399 9.77838 6.34399 14C6.34399 18.2217 9.77837 21.6561 14 21.6561C18.2217 21.6561 21.6561 18.2217 21.6561 14C21.6561 9.77838 18.2217 6.34401 14 6.34401ZM14 20.0146C10.6838 20.0146 7.98549 17.3166 7.98549 14C7.98549 10.6838 10.6838 7.98551 14 7.98551C17.3165 7.98551 20.0146 10.6838 20.0146 14C20.0146 17.3166 17.3165 20.0146 14 20.0146ZM21.8392 3.625C20.5916 3.625 19.5769 4.63995 19.5769 5.88726C19.5769 7.13484 20.5916 8.14973 21.8392 8.14973C23.0867 8.14973 24.1016 7.13484 24.1016 5.88731C24.1016 4.63978 23.0867 3.625 21.8392 3.625ZM21.8392 6.50807C21.4969 6.50807 21.2183 6.22949 21.2183 5.88726C21.2183 5.54486 21.4969 5.2665 21.8392 5.2665C22.1815 5.2665 22.4601 5.54486 22.4601 5.88726C22.4601 6.22949 22.1815 6.50807 21.8392 6.50807Z" fill="white"/>
</g>
<defs>
<clipPath id="clip0_484_4173">
<rect width="28" height="28" fill="white"/>
</clipPath>
</defs>
</svg>
