<svg width="98" height="27" viewBox="0 0 98 27" fill="none" xmlns="http://www.w3.org/2000/svg">
<g clip-path="url(#clip0_840_2301)">
<path d="M69.0828 13.68C65.1589 13.68 61.4987 13.68 57.8715 13.68C57.8386 15.7594 58.7948 16.9941 60.7073 17.449C62.8837 18.0013 64.961 17.6439 66.9065 16.6042C67.4341 16.3443 67.9287 16.0518 68.819 15.597C68.819 17.0916 68.885 18.2937 68.7861 19.4959C68.7531 19.8208 68.1925 20.2432 67.7639 20.3731C64.4005 21.5753 61.0041 21.8027 57.6077 20.6006C54.3763 19.4634 52.6286 16.8966 52.5297 13.3876C52.4308 9.65112 53.4859 6.53199 57.1791 4.80997C59.4873 3.73776 61.9604 3.70527 64.4005 4.38758C67.0055 5.13488 68.3904 6.98686 68.852 9.48867C69.0828 10.7883 69.0169 12.0879 69.0828 13.68ZM63.8729 10.4634C63.708 8.09156 62.6528 7.08434 60.6414 7.2143C58.8278 7.34426 57.7396 8.61141 57.9045 10.4634C59.916 10.4634 61.8944 10.4634 63.8729 10.4634Z" fill="white"/>
<path d="M39.2062 4.67711C39.3051 5.067 39.404 5.48938 39.5029 5.91177C39.7338 5.84679 39.9316 5.84678 40.0305 5.7818C40.5581 5.48938 41.0198 5.09949 41.5473 4.83956C45.5372 2.72765 49.3953 4.7096 49.725 9.16086C49.9228 12.1175 49.8239 15.1067 49.7909 18.0634C49.758 21.3125 50.2856 20.8901 46.9551 20.9226C44.6799 20.9551 44.6799 20.9226 44.6469 18.6482C44.614 16.049 44.6799 13.4497 44.4821 10.8829C44.4161 10.0706 43.7896 8.80346 43.1631 8.60852C42.1739 8.3161 40.9538 8.70599 39.8986 9.0309C39.5689 9.12837 39.3381 10.0056 39.3381 10.558C39.2721 13.3522 39.3051 16.1789 39.3051 19.0056C39.3051 19.5905 39.3051 20.1753 39.3051 20.8576C37.5574 20.8576 35.9747 20.8576 34.293 20.8576C34.293 15.4966 34.293 10.1681 34.293 4.74209C35.8757 4.67711 37.4585 4.67711 39.2062 4.67711Z" fill="white"/>
<path d="M14.7383 4.54853C16.42 4.54853 17.9038 4.45106 19.3547 4.61351C19.7834 4.646 20.311 5.36081 20.5088 5.84817C21.531 8.64239 22.4543 11.4366 23.8062 14.2633C24.5317 11.989 25.2571 9.7146 25.9826 7.47272C26.9388 4.54853 26.9388 4.54853 30.0384 4.54853C30.6649 4.54853 31.3244 4.54853 32.2147 4.54853C31.1266 7.44023 30.1373 10.072 29.1481 12.6713C27.4994 17.0251 25.8507 21.3789 24.2679 25.7651C23.9381 26.6749 23.4765 27.0323 22.4873 26.9673C21.2013 26.8698 19.8823 26.9348 18.2995 26.9348C18.926 25.3103 19.3877 23.8807 20.0142 22.516C20.6407 21.2164 20.6407 20.0142 20.0801 18.6496C18.4314 14.6532 16.9476 10.5594 15.3978 6.53048C15.1999 5.97813 15.0021 5.36081 14.7383 4.54853Z" fill="white"/>
<path d="M84.1818 9.42109C83.3575 8.99871 82.9288 8.6738 82.4012 8.51135C81.2141 8.15395 79.9941 7.69907 78.774 7.56911C77.7188 7.43914 76.268 7.53662 76.1031 8.86875C75.9052 10.2334 77.3891 10.2334 78.3124 10.5258C79.4005 10.8507 80.5546 11.0132 81.6428 11.403C83.3575 11.9879 84.5775 13.0601 84.8083 14.9446C85.0721 17.024 84.4456 18.746 82.632 19.8507C78.9389 22.1251 75.1139 21.7352 71.2559 20.3056C70.9921 20.2081 70.6623 19.7857 70.6623 19.4933C70.5964 18.3236 70.6293 17.1539 70.6293 15.7568C71.7505 16.3417 72.6078 17.024 73.5641 17.2189C75.1798 17.5438 76.8615 17.6413 78.5102 17.6413C78.8729 17.6413 79.4335 16.894 79.4995 16.4391C79.5324 16.1142 78.9389 15.5294 78.5102 15.3669C76.9934 14.8796 75.4106 14.6197 73.9268 14.0998C71.9153 13.4175 70.7942 11.9554 70.6953 9.84348C70.5964 7.89402 71.5196 6.26947 73.2343 5.45719C74.6192 4.77488 76.235 4.32001 77.7518 4.19005C79.2357 4.06008 80.7855 4.44997 82.3023 4.64492C83.6872 4.80737 84.3137 5.48968 84.1159 6.95178C84.0829 7.6016 84.1818 8.38138 84.1818 9.42109Z" fill="white"/>
<path d="M-0.0009697 15.8874C1.48288 16.5372 2.73591 17.2845 4.08786 17.5769C5.30791 17.8368 6.65986 17.6744 7.94587 17.5119C8.27561 17.4794 8.83618 16.8296 8.8032 16.5047C8.77023 16.0823 8.34156 15.4975 7.91289 15.335C6.89069 14.9451 5.80253 14.7827 4.74735 14.5552C1.35098 13.7755 -0.0669186 12.0859 0.0649792 9.12924C0.163902 7.08231 1.38396 5.81516 3.09863 5.03538C6.19822 3.60578 9.39674 3.76823 12.5293 4.90541C12.925 5.03538 13.3537 5.62022 13.4196 6.0426C13.5515 7.04982 13.4526 8.08953 13.4526 9.42166C12.7601 9.06426 12.3315 8.73935 11.8698 8.64188C10.1881 8.28448 8.50643 7.89458 6.79176 7.73213C6.33012 7.69964 5.76956 8.47942 5.27494 8.9018C5.73658 9.35668 6.0993 10.0065 6.65986 10.2339C7.78099 10.6563 9.00105 10.7863 10.1552 11.1112C12.6942 11.826 13.9142 13.1581 14.1121 15.3025C14.3099 17.4469 13.2218 19.2989 10.9795 20.3711C7.58315 21.9632 4.15381 21.6383 0.724468 20.4036C0.394723 20.2736 0.0320047 19.8188 -0.0009697 19.4939C-0.0339441 18.3242 -0.0009697 17.1545 -0.0009697 15.8874Z" fill="white"/>
<path d="M87.8075 8.18773C87.0491 8.12274 86.5875 8.05776 85.9609 7.99278C85.9609 6.92058 85.9609 5.88087 85.9609 4.71119C86.4556 4.61372 87.0161 4.51625 87.7745 4.35379C87.7745 2.92419 87.7745 1.49458 87.7745 0C89.5881 0 91.2039 0 92.9845 0C92.9845 1.52708 92.9845 2.8917 92.9845 4.48376C94.6332 4.48376 96.15 4.48376 97.7988 4.48376C97.7988 5.71841 97.7988 6.75812 97.7988 8.05776C96.2819 8.05776 94.7321 8.05776 93.0175 8.05776C93.0175 10.8195 92.9515 13.3538 93.0504 15.8556C93.1164 17.2852 94.2045 17.7401 95.4905 17.7076C96.249 17.6751 96.9744 17.4801 97.6998 17.3502C97.7987 17.5126 97.8977 17.6101 97.8977 17.7076C98.2274 20.9242 98.0955 21.0866 94.8311 21.2491C93.9407 21.2816 93.0834 21.2491 92.1931 21.1516C89.3573 20.8267 87.8734 19.2671 87.8075 16.4079C87.7415 13.7112 87.8075 11.0144 87.8075 8.18773Z" fill="white"/>
</g>
<defs>
<clipPath id="clip0_840_2301">
<rect width="98" height="27" fill="white"/>
</clipPath>
</defs>
</svg>
