<svg width="138" height="37" viewBox="0 0 138 37" fill="none" xmlns="http://www.w3.org/2000/svg">
<g clip-path="url(#clip0_840_2194)">
<path d="M97.2803 18.7444C91.7547 18.7444 86.6006 18.7444 81.4929 18.7444C81.4465 21.5939 82.7931 23.2859 85.4862 23.9092C88.5508 24.6661 91.4761 24.1764 94.2157 22.7516C94.9586 22.3954 95.6551 21.9947 96.9088 21.3713C96.9088 23.4194 97.0017 25.0669 96.8624 26.7143C96.8159 27.1595 96.0266 27.7383 95.4229 27.9164C90.6867 29.5639 85.9041 29.8755 81.1214 28.2281C76.571 26.6698 74.11 23.1523 73.9707 18.3436C73.8314 13.2233 75.3173 8.94893 80.5178 6.58912C83.7681 5.11981 87.2507 5.07528 90.6867 6.0103C94.355 7.03437 96.3052 9.57228 96.9552 13.0007C97.2803 14.7817 97.1874 16.5626 97.2803 18.7444ZM89.9438 14.3364C89.7116 11.0861 88.2258 9.70585 85.3933 9.88395C82.8395 10.062 81.3072 11.7985 81.5394 14.3364C84.3718 14.3364 87.1578 14.3364 89.9438 14.3364Z" fill="black"/>
<path d="M55.2086 6.41125C55.3479 6.94555 55.4872 7.52437 55.6265 8.10319C55.9515 8.01414 56.2301 8.01414 56.3694 7.92509C57.1124 7.52437 57.7624 6.99007 58.5054 6.63388C64.1238 3.73977 69.5565 6.45578 70.0209 12.5557C70.2995 16.6074 70.1602 20.7037 70.1137 24.7554C70.0673 29.2079 70.8102 28.6291 66.1205 28.6736C62.9166 28.7181 62.9166 28.6736 62.8701 25.5569C62.8237 21.9949 62.9166 18.4329 62.638 14.9155C62.5451 13.8023 61.6628 12.0659 60.7806 11.7987C59.3876 11.398 57.6696 11.9323 56.1837 12.3776C55.7194 12.5111 55.3943 13.7133 55.3943 14.4702C55.3015 18.2993 55.3479 22.173 55.3479 26.0466C55.3479 26.8481 55.3479 27.6495 55.3479 28.5845C52.8869 28.5845 50.6581 28.5845 48.29 28.5845C48.29 21.238 48.29 13.9359 48.29 6.5003C50.5188 6.41125 52.7476 6.41125 55.2086 6.41125Z" fill="black"/>
<path d="M20.7539 6.23505C23.122 6.23505 25.2115 6.10148 27.2546 6.3241C27.8582 6.36863 28.6011 7.34817 28.8797 8.01604C30.3192 11.8452 31.6193 15.6743 33.5231 19.5479C34.5446 16.4312 35.5662 13.3145 36.5877 10.2423C37.9343 6.23505 37.9343 6.23505 42.299 6.23505C43.1812 6.23505 44.1099 6.23505 45.3636 6.23505C43.8313 10.1977 42.4383 13.8042 41.0453 17.3662C38.7236 23.3325 36.402 29.2988 34.1732 35.3097C33.7088 36.5564 33.0588 37.0461 31.6657 36.9571C29.8548 36.8235 27.9975 36.9126 25.7687 36.9126C26.6509 34.6863 27.301 32.7272 28.1832 30.8572C29.0655 29.0762 29.0655 27.4288 28.2761 25.5588C25.9544 20.0822 23.8649 14.4721 21.6826 8.95106C21.404 8.19414 21.1254 7.34817 20.7539 6.23505Z" fill="black"/>
<path d="M118.542 12.915C117.381 12.3362 116.778 11.8909 116.035 11.6683C114.363 11.1786 112.645 10.5552 110.927 10.3771C109.441 10.199 107.398 10.3326 107.166 12.1581C106.887 14.0281 108.977 14.0281 110.277 14.4289C111.809 14.8741 113.434 15.0967 114.967 15.631C117.381 16.4325 119.099 17.9018 119.424 20.4842C119.796 23.3338 118.913 25.6936 116.36 27.2074C111.159 30.3242 105.773 29.7899 100.34 27.8308C99.9687 27.6972 99.5043 27.1184 99.5043 26.7177C99.4115 25.1148 99.4579 23.5119 99.4579 21.5973C101.037 22.3988 102.244 23.3338 103.59 23.6009C105.866 24.0462 108.234 24.1798 110.555 24.1798C111.066 24.1798 111.856 23.1557 111.948 22.5323C111.995 22.0871 111.159 21.2857 110.555 21.063C108.42 20.3952 106.191 20.039 104.101 19.3266C101.269 18.3916 99.6901 16.3879 99.5508 13.4938C99.4115 10.8224 100.712 8.59612 103.126 7.48301C105.076 6.54799 107.352 5.92464 109.488 5.74654C111.577 5.56845 113.759 6.10274 115.895 6.36989C117.846 6.59251 118.728 7.52753 118.449 9.53114C118.403 10.4216 118.542 11.4902 118.542 12.915Z" fill="black"/>
<path d="M-0.0013356 21.7716C2.08817 22.6621 3.85263 23.6861 5.7564 24.0869C7.47444 24.4431 9.37821 24.2204 11.1891 23.9978C11.6534 23.9533 12.4428 23.0628 12.3964 22.6175C12.3499 22.0387 11.7463 21.2373 11.1427 21.0147C9.70324 20.4804 8.17094 20.2577 6.68507 19.9461C1.90243 18.8775 -0.0942024 16.5622 0.0915312 12.5104C0.230831 9.70539 1.94887 7.96893 4.3634 6.90033C8.72814 4.94125 13.2322 5.16387 17.6433 6.72223C18.2005 6.90033 18.8042 7.70178 18.897 8.2806C19.0828 9.66086 18.9435 11.0857 18.9435 12.9112C17.9684 12.4214 17.3647 11.9761 16.7147 11.8426C14.3466 11.3528 11.9785 10.8185 9.56394 10.5959C8.91387 10.5514 8.12451 11.6199 7.42801 12.1988C8.07807 12.8221 8.58884 13.7126 9.37821 14.0243C10.9569 14.6031 12.675 14.7812 14.3001 15.2264C17.8755 16.206 19.5935 18.0315 19.8722 20.9701C20.1507 23.9088 18.6184 26.4467 15.461 27.916C10.6783 30.0977 5.84927 29.6524 1.0202 27.9605C0.555865 27.7824 0.0450978 27.1591 -0.0013356 26.7138C-0.047769 25.1109 -0.0013356 23.508 -0.0013356 21.7716Z" fill="black"/>
<path d="M123.647 11.2202C122.579 11.1312 121.929 11.0421 121.047 10.9531C121.047 9.48376 121.047 8.05897 121.047 6.45608C121.743 6.3225 122.533 6.18893 123.601 5.96631C123.601 4.00722 123.601 2.04813 123.601 0C126.155 0 128.43 0 130.937 0C130.937 2.09266 130.937 3.9627 130.937 6.1444C133.259 6.1444 135.395 6.1444 137.716 6.1444C137.716 7.83634 137.716 9.26113 137.716 11.0421C135.581 11.0421 133.398 11.0421 130.984 11.0421C130.984 14.8267 130.891 18.2996 131.03 21.728C131.123 23.6871 132.655 24.3105 134.466 24.2659C135.534 24.2214 136.556 23.9543 137.577 23.7762C137.716 23.9988 137.856 24.1324 137.856 24.2659C138.32 28.6739 138.134 28.8965 133.537 29.1191C132.284 29.1637 131.076 29.1191 129.823 28.9856C125.83 28.5403 123.74 26.4031 123.647 22.485C123.554 18.7894 123.647 15.0939 123.647 11.2202Z" fill="black"/>
</g>
<defs>
<clipPath id="clip0_840_2194">
<rect width="138" height="37" fill="white"/>
</clipPath>
</defs>
</svg>
