<svg width="389" height="134" viewBox="0 0 389 134" fill="none" xmlns="http://www.w3.org/2000/svg">
<path d="M79.5821 48.6242C83.6954 56.6959 88.524 56.8752 94.0679 50.2385C96.7505 52.2116 99.0753 53.8259 101.937 55.9784C104.44 53.8259 106.765 51.6735 109.448 49.1623C107.66 46.4717 106.05 44.1399 103.725 41.0906C105.335 39.1175 107.123 37.1444 109.269 34.4538C111.594 36.965 113.382 38.7587 115.349 40.9112C113.382 43.6018 111.773 45.9336 109.09 49.521C111.594 51.4941 114.098 53.4672 116.959 55.799C119.284 54.1847 121.609 52.5703 124.47 50.4179C126.259 51.8528 128.226 53.4672 129.656 54.7228C109.448 74.9917 89.597 94.7226 69.2096 115.171C68.3154 114.453 66.3482 113.198 64.7387 111.763C49.0011 96.1575 33.2634 80.5522 17.5258 64.7676C10.5512 57.7721 11.4453 54.5434 20.566 50.956C21.4602 50.5972 22.5332 50.7766 23.0697 50.2385C31.1174 41.4493 38.9862 32.6601 47.0339 23.8709C47.5704 23.3328 47.5704 21.8978 48.1069 21.5391C57.0487 16.5167 64.9175 10.2387 69.3885 0.373278C69.7461 -0.344207 73.8594 0.0145357 75.4689 1.09076C79.0456 3.60196 82.2647 6.83064 85.6626 9.87996C83.3377 13.288 81.7282 15.7992 79.5821 18.8485C81.5493 21.001 83.6954 23.3328 86.1991 26.0234C89.0605 24.2297 91.743 22.4359 94.7833 20.4629C96.7505 22.2566 98.5388 24.0503 100.327 25.6646C96.214 34.9919 91.743 30.1489 86.7356 26.0234C84.2319 28.1758 82.0859 30.3283 79.4033 32.8395C81.3705 35.7094 82.98 38.4 84.9473 41.4493C83.1589 43.6018 81.5493 45.9336 79.5821 48.6242ZM49.5376 48.8035C53.6508 57.234 58.6582 56.3371 63.8445 50.5972C66.8847 52.5703 69.3885 54.1847 72.2498 56.1577C74.7536 53.4672 76.8996 51.1353 79.4033 48.6242C76.5419 45.9336 74.217 43.7811 71.7133 41.4493C68.8519 43.6018 66.5271 45.2161 64.0233 47.1892C58.4794 41.0906 53.472 40.7318 49.5376 48.8035ZM72.2498 26.3821C62.5927 33.3776 62.5927 35.1713 72.4287 40.7318C80.6552 33.7363 80.6552 33.7363 72.2498 26.3821ZM71.7133 71.0456C80.6552 63.8707 80.6552 62.9739 71.3557 57.0546C62.5927 63.6913 62.5927 64.0501 71.7133 71.0456ZM102.294 71.0456C111.057 63.512 111.057 62.7945 101.758 56.8752C92.8161 63.6913 92.8161 64.5882 102.294 71.0456ZM78.5091 78.9379C82.8012 82.1666 84.2319 88.9827 90.4912 83.4222C93.8891 80.5522 94.0679 77.6823 90.67 74.633C84.5896 68.8931 82.98 75.7092 78.5091 78.9379ZM86.3779 56.6959C77.2573 64.0501 77.6149 66.3819 87.451 70.5074C95.4986 65.6644 94.0679 61.1801 86.3779 56.6959Z" fill="white"/>
<path d="M153.264 92.742C153.264 78.5717 153.443 66.1951 153.264 53.8185C153.264 49.3342 154.694 47.3611 159.344 47.5405C174.724 47.7199 190.104 47.3611 205.484 47.7199C207.451 47.7199 209.24 50.5898 211.207 52.2041C209.061 53.8185 207.094 56.8678 204.947 57.0472C194.575 57.5853 184.202 57.0472 173.83 57.4059C171.505 57.5853 169.18 60.0965 166.855 61.5314C169.001 62.787 171.326 64.9395 173.472 64.9395C183.845 65.2982 194.217 64.7601 204.59 65.2982C206.915 65.4776 208.882 68.3476 211.207 69.9619C209.061 71.5762 206.915 74.6255 204.769 74.6255C194.038 75.1637 183.487 74.6255 172.757 74.9843C170.79 74.9843 168.822 77.1367 166.855 78.3923C168.822 79.8273 170.79 82.5179 172.757 82.5179C183.666 82.8766 194.754 82.5179 205.663 82.8766C207.451 82.8766 210.491 85.2085 210.849 86.8228C211.207 88.4371 208.703 92.0246 207.272 92.2039C189.746 92.742 172.042 92.742 153.264 92.742Z" fill="white"/>
<path d="M351.952 92.3906C332.995 92.3906 314.754 92.3906 295.797 92.3906C295.797 77.6822 295.797 63.1531 295.797 48.0859C314.575 48.0859 332.995 48.0859 351.952 48.0859C351.952 62.7944 351.952 77.1441 351.952 92.3906ZM308.137 82.884C317.436 82.884 326.02 83.0633 334.426 82.7046C336.214 82.5252 338.897 80.014 339.254 78.2203C339.97 73.0185 339.97 67.6374 339.254 62.4356C339.075 60.6419 336.393 57.772 334.783 57.5926C326.02 57.0545 317.257 57.4132 308.137 57.4132C308.137 66.2024 308.137 73.736 308.137 82.884Z" fill="white"/>
<path d="M233.381 47.9043C252.874 47.9043 271.115 47.9043 292.397 47.9043C280.594 60.1015 270.221 70.6844 258.418 82.7023C270.042 82.7023 279.699 82.7023 290.072 82.7023C290.072 86.2897 290.072 88.8009 290.072 92.209C271.294 92.209 252.874 92.209 232.129 92.209C243.574 80.3705 253.947 69.6082 265.571 57.5903C254.126 57.5903 244.29 57.5903 233.917 57.5903C233.56 53.8235 233.56 51.4917 233.381 47.9043Z" fill="white"/>
<path d="M69.9252 126.109C67.0638 128.8 63.8447 131.669 61.341 134.001C40.5959 113.374 20.3874 93.284 0 73.0151C2.14604 71.042 5.3651 67.8133 8.22649 64.9434C28.435 84.8536 48.6436 105.123 69.9252 126.109Z" fill="white"/>
<path d="M373.411 76.2502C365.185 76.2502 358.389 69.7928 358.568 61.9005C358.568 54.0081 365.543 47.5508 373.59 47.5508C381.996 47.5508 388.255 53.8288 388.255 62.0799C388.076 70.5103 381.996 76.2502 373.411 76.2502Z" fill="white"/>
<path d="M227.66 92.2096C223.368 92.2096 219.97 92.2096 216.215 92.2096C216.215 77.3218 216.215 62.9721 216.215 48.2637C220.149 48.2637 223.547 48.2637 227.66 48.2637C227.66 62.6134 227.66 77.1425 227.66 92.2096Z" fill="white"/>
<path d="M94.4275 33.9102C97.1101 36.6007 99.0773 38.2151 101.223 40.5469C98.7196 43.2375 96.7524 45.2105 94.4275 47.5424C92.1026 45.3899 90.1354 43.7756 87.8105 41.4438C89.9566 39.1119 91.745 36.9595 94.4275 33.9102Z" fill="white"/>
</svg>
