<svg width="16" height="26" viewBox="0 0 16 26" fill="none" xmlns="http://www.w3.org/2000/svg">
<g clip-path="url(#clip0_886_1314)">
<path d="M9.46717 26H5.16596C4.44753 26 3.86308 25.4343 3.86308 24.7388V15.3475H1.35365C0.635175 15.3475 0.0507812 14.7815 0.0507812 14.0862V10.062C0.0507812 9.3665 0.635175 8.8008 1.35365 8.8008H3.86308V6.78559C3.86308 4.78745 4.51121 3.0875 5.73723 1.86971C6.96881 0.646445 8.68994 0 10.7145 0L13.9948 0.00517969C14.712 0.00634766 15.2955 0.572102 15.2955 1.26633V5.00277C15.2955 5.69821 14.7112 6.26397 13.993 6.26397L11.7844 6.26473C11.1108 6.26473 10.9393 6.39544 10.9026 6.43551C10.8422 6.50203 10.7703 6.68982 10.7703 7.20855V8.80064H13.827C14.0571 8.80064 14.2801 8.85559 14.4717 8.95908C14.885 9.18267 15.142 9.60537 15.142 10.0622L15.1404 14.0865C15.1404 14.7815 14.5559 15.3473 13.8375 15.3473H10.7702V24.7388C10.7703 25.4343 10.1857 26 9.46717 26ZM5.43764 24.4757H9.19544V14.6651C9.19544 14.2008 9.58584 13.8231 10.0653 13.8231H13.5657L13.5672 10.3251H10.0651C9.58563 10.3251 9.19544 9.94744 9.19544 9.48304V7.2086C9.19544 6.61314 9.25797 5.93592 9.72228 5.42689C10.2834 4.81157 11.1676 4.74058 11.784 4.74058L13.7209 4.73977V1.52897L10.7133 1.52425C7.45957 1.52425 5.43769 3.54042 5.43769 6.78564V9.48299C5.43769 9.94713 5.0475 10.325 4.56797 10.325H1.62539V13.823H4.56797C5.0475 13.823 5.43769 14.2007 5.43769 14.6651L5.43764 24.4757Z" fill="black"/>
</g>
<defs>
<clipPath id="clip0_886_1314">
<rect width="16" height="26" fill="white"/>
</clipPath>
</defs>
</svg>
