<svg width="28" height="28" viewBox="0 0 28 28" fill="none" xmlns="http://www.w3.org/2000/svg">
<g clip-path="url(#clip0_886_1321)">
<path d="M7.30434 27.4303H0V8.56095H7.30434V27.4303ZM1.21731 26.213H6.08703V9.77826H1.21731V26.213ZM28.0001 27.4303H20.6957V17.0826C20.6957 16.0741 19.8781 15.2565 18.8696 15.2565C17.8609 15.2565 17.0435 16.0741 17.0435 17.0826V27.4303H9.7392V8.56095H17.0435V9.78585C18.146 8.98874 19.4721 8.56006 20.8326 8.56095C24.7815 8.56095 28.0001 11.7642 28.0001 15.7055V27.4303ZM21.913 26.213H26.7825V15.7055C26.7743 12.4265 24.1116 9.77404 20.8326 9.77826C19.3337 9.77826 17.9261 10.4097 16.8761 11.551L15.826 12.7V9.77826H10.9565V26.213H15.826V17.0826C15.826 15.4016 17.1887 14.0392 18.8696 14.0392C20.5504 14.0392 21.913 15.4016 21.913 17.0826V26.213ZM3.65217 7.34341C1.63503 7.34341 0 5.70837 0 3.69123C0 1.67432 1.63503 0.0390625 3.65217 0.0390625C5.66931 0.0390625 7.30434 1.67432 7.30434 3.69123C7.30012 5.70655 5.66749 7.33941 3.65217 7.34341ZM3.65217 1.25661C2.30754 1.25661 1.21731 2.34666 1.21731 3.69123C1.21731 5.03603 2.30754 6.12609 3.65217 6.12609C4.9968 6.12609 6.08703 5.03603 6.08703 3.69123C6.08703 2.34666 4.99674 1.25661 3.65217 1.25661Z" fill="black"/>
</g>
<defs>
<clipPath id="clip0_886_1321">
<rect width="28" height="28" fill="white"/>
</clipPath>
</defs>
</svg>
